<svg width="36" height="36" viewBox="0 0 36 36" fill="none" xmlns="http://www.w3.org/2000/svg">
<rect width="36" height="36" rx="6" fill="#00A0D1"/>
<path d="M29.2266 19.7807C30.1652 19.7807 30.9298 20.5453 30.9298 21.4839C30.9298 22.4225 30.1652 23.1871 29.2266 23.1871C28.288 23.1871 27.5234 22.4225 27.5234 21.4839C27.5234 20.5453 28.288 19.7807 29.2266 19.7807Z" fill="white"/>
<path d="M20.3294 7.31281C23.537 6.2312 26.2951 6.98874 28.1874 8.94701C29.9871 10.8095 30.8404 13.5803 30.8404 16.3374C30.8404 17.2192 30.1255 17.9341 29.2436 17.9342C28.3618 17.9341 27.6468 17.2192 27.6468 16.3374C27.6468 14.1569 26.9614 12.2739 25.8909 11.166C25.4048 10.663 24.8 10.2754 24.0484 10.1049C23.2971 9.93448 22.4062 9.98259 21.3501 10.3387C20.2021 10.726 18.9078 11.5974 17.5241 12.9008C16.1555 14.19 14.785 15.8201 13.4751 17.6009C10.8552 21.1626 8.56973 25.2005 7.11294 28.0004C6.70585 28.7826 5.74177 29.0868 4.95952 28.6799C4.17727 28.2728 3.87321 27.3086 4.28021 26.5263C5.775 23.6533 8.14632 19.4555 10.9026 15.7084C12.2808 13.8348 13.7785 12.0421 15.3346 10.5763C16.8755 9.12477 18.5625 7.90882 20.3294 7.31281Z" fill="white"/>
</svg>
