<?xml version="1.0" encoding="UTF-8"?>
<svg id="Layer_1" data-name="Layer 1" xmlns="http://www.w3.org/2000/svg" xmlns:xlink="http://www.w3.org/1999/xlink" viewBox="0 0 1398.75 293.35">
  <defs>
    <style>
      .cls-1 {
        fill: url(#linear-gradient);
      }

      .cls-1, .cls-2, .cls-3, .cls-4, .cls-5 {
        stroke-width: 0px;
      }

      .cls-2 {
        fill: none;
      }

      .cls-3 {
        fill: #fff;
      }

      .cls-4 {
        fill: url(#linear-gradient-2);
      }

      .cls-5 {
        fill: url(#linear-gradient-3);
      }
    </style>
    <linearGradient id="linear-gradient" x1="158.13" y1="133.66" x2="305.46" y2="48.6" gradientTransform="translate(0 305.09) scale(1 -1)" gradientUnits="userSpaceOnUse">
      <stop offset="0" stop-color="#f1cf78"/>
      <stop offset="1" stop-color="#e8b341"/>
    </linearGradient>
    <linearGradient id="linear-gradient-2" x1="9.87" y1="49.53" x2="157.12" y2="134.55" gradientTransform="translate(0 305.09) scale(1 -1)" gradientUnits="userSpaceOnUse">
      <stop offset="0" stop-color="#1f5470"/>
      <stop offset="1" stop-color="#1f85c4"/>
    </linearGradient>
    <linearGradient id="linear-gradient-3" x1="158.4" y1="134.95" x2="158.4" y2="305.09" gradientTransform="translate(0 305.09) scale(1 -1)" gradientUnits="userSpaceOnUse">
      <stop offset="0" stop-color="#8bd0eb"/>
      <stop offset="1" stop-color="#20b0e7"/>
    </linearGradient>
  </defs>
  <g id="Laag_3" data-name="Laag 3">
    <rect class="cls-2" x="-19.55" y="-20.45" width="1436" height="333.1"/>
  </g>
  <g id="Laag_4" data-name="Laag 4">
    <rect class="cls-3" x="533.85" y="64.55" width="22.7" height="178.2"/>
    <path class="cls-3" d="m773.05,184.45c0-35,28.7-58,61.6-58,17.9,0,33.6,6.9,43.7,17.5l-13.5,13.5c-7.1-7.1-17.4-11.6-29.5-11.6-22.6,0-40.8,15.9-40.8,38.6s18.2,38.8,40.8,38.8c12,0,22.3-4.5,29.5-11.6l13.5,13.5c-10.1,10.9-25.8,17.5-43.7,17.5-32.8,0-61.6-23.2-61.6-58.2"/>
    <path class="cls-3" d="m986.75,184.55c0-22.7-17.7-38.6-38.8-38.6s-38.4,15.9-38.4,38.6,17.5,38.9,38.4,38.9c21.1-.1,38.8-16,38.8-38.9m-98.8,0c0-35.1,27.3-58.1,60-58.1s60.2,23,60.2,58.1-27.5,58.3-60.2,58.3-60-23.3-60-58.3"/>
    <rect class="cls-3" x="1032.55" y="64.55" width="22.3" height="178.3"/>
    <path class="cls-3" d="m723.45,64.55c0,.1-.1.2-.1.2h-.1l-54.1,123.8-55.9-123.8h0c0-.1-.1-.2-.1-.2h-24.4v178.2h21.1v-94.3c0-10.9-.3-26.8-.5-32.1l-.3-6.8,60.6,133.6,57.9-132.6-.3,5.7c-.3,5.2-.5,21.1-.5,32.1v94.3h22.2V64.55h-25.5Z"/>
    <rect class="cls-3" x="1087.05" y="64.55" width="22.3" height="178.3"/>
    <path class="cls-3" d="m1338.55,223.35c-20.9,0-38.3-15.9-38.3-38.8s17.4-38.6,38.3-38.6,38.8,15.9,38.8,38.6c0,22.9-17.7,38.8-38.8,38.8m0-96.9c-14.8,0-28.5,4.7-39,13.1v-75h-21.4v177.7h21.4v-12.7c10.5,8.5,24.2,13.2,39,13.2,32.7,0,60.2-23.2,60.2-58.3s-27.5-58-60.2-58"/>
    <path class="cls-3" d="m1193.85,223.35c-20.9,0-38.4-15.9-38.4-38.9s17.5-38.7,38.4-38.7,37.3,14.5,38.8,35.6h0v6.2c-1.6,21.3-18.7,35.8-38.8,35.8m60.3-38.9c0-35.1-27.6-58.1-60.3-58.1s-60.1,23-60.1,58.1,27.3,58.4,60.1,58.4c14.6,0,28.2-4.7,38.8-12.9v12.6h21.4v-54.3c0-1.3.1-2.5.1-3.8"/>
    <path class="cls-1" d="m241.65,145.95h-68.8l14.4,25h54.6c26.8.1,48.5,21.9,48.5,48.7s-21.9,48.7-48.7,48.7-48.7-21.9-48.7-48.7c0-8.6,2.2-16.6,6.1-23.6h-27.2c-2.5,7.4-3.9,15.4-3.9,23.6,0,40.7,33.1,73.7,73.7,73.7s73.7-33.1,73.7-73.7-33-73.7-73.7-73.7Z"/>
    <path class="cls-4" d="m137.45,255.65c.5-.8.9-1.6,1.3-2.3l33.1-57.3h-28.9l-27.3,47.3h0c-13.5,23.1-43.2,31-66.4,17.6-23.3-13.4-31.3-43.3-17.8-66.6,13.4-23.3,43.3-31.3,66.6-17.8,7.4,4.3,13.3,10.2,17.4,17.1l13.6-23.6c-5.2-5.9-11.3-11.1-18.5-15.2-35.2-20.3-80.4-8.2-100.7,27-20.3,35.2-8.2,80.4,27,100.7s80.3,8.3,100.6-26.9Z"/>
    <path class="cls-5" d="m94.55,110.55c.5.8.9,1.5,1.3,2.3l33.1,57.3,14.4-25-27.3-47.3h0c-13.3-23.2-5.3-53,17.9-66.4,23.3-13.4,53.1-5.4,66.6,17.8s5.4,53.1-17.8,66.6c-7.4,4.3-15.5,6.4-23.5,6.5l13.6,23.6c7.7-1.5,15.2-4.3,22.4-8.4,35.2-20.3,47.3-65.5,27-100.7S156.75-10.45,121.55,9.85s-47.3,65.5-27,100.7Z"/>
    <path class="cls-3" d="m506.45,188.95c0-20.2-11.1-37.9-27.6-47.2,7.8-8.2,12.6-19.3,12.6-31.5,0-25.3-20.6-45.8-45.8-45.8h-68.4v178.6h77.4c28.9-1.3,51.8-25,51.8-54.1Zm-53,32.7h-51.9V85.95h44.4c13.3.1,24.2,11,24.2,24.4s-10.9,24.4-24.4,24.4v.1h-23.7l12.4,21.4h19.1c17.5.6,31.6,15.1,31.6,32.8-.1,17.6-14.2,32-31.7,32.6Z"/>
  </g>
</svg>