<?xml version="1.0" encoding="utf-8"?>
<svg version="1.1" id="Dynamo" xmlns="http://www.w3.org/2000/svg" xmlns:xlink="http://www.w3.org/1999/xlink" x="0px" y="0px"
	 viewBox="0 0 900 1100" style="enable-background:new 0 0 900 1100;" xml:space="preserve">
<style type="text/css">
	.st0{fill:#655768;}
	.st1{fill:#7C817B;}
	.st2{fill:#836388;}
	.st3{fill:#64879D;}
	.st4{fill:#7B8F8E;}
	.st5{fill:#6A8DA9;}
	.st6{fill:#606060;}
	.st7{fill:#C74044;}
	.st8{fill:#6C7F86;}
	.st9{fill:#8D8A6B;}
	.st10{fill:#964C67;}
	.st11{fill:#B93D35;}
	.st12{fill:#6A3837;}
	.st13{fill:#4A9DBF;}
	.st14{fill:#8B5562;}
	.st15{fill:#95676A;}
	.st16{fill:#3C96B0;}
	.st17{fill:#676493;}
	.st18{fill:#5F8F81;}
	.st19{fill:#3D5263;}
	.st20{fill:#3395A2;}
	.st21{fill:#A2352E;}
	.st22{fill:#6F4C76;}
	.st23{fill:#62895C;}
</style>
<path class="st0" d="M568.98,382.92L447.1,357.99l-125.83,158.6l157.12,158.5l107.69-40.4C580.07,546.02,575.1,472.98,568.98,382.92
	z"/>
<path class="st1" d="M586.09,634.69l-107.69,40.4l46.49,46.9l61.83-77.94C586.52,640.96,586.32,637.98,586.09,634.69z"/>
<path class="st2" d="M568.98,382.92c-0.64-9.35-1.26-18.52-1.78-26.15l-66.18-66.76l-53.93,67.98L568.98,382.92z"/>
<path class="st3" d="M568.98,382.92c6.12,90.06,11.08,163.1,17.11,251.77l11.47-4.3l107.08-134.97L599.28,389.12L568.98,382.92z"/>
<path class="st4" d="M597.57,630.38l-11.47,4.3c0.22,3.3,0.43,6.27,0.64,9.36L597.57,630.38z"/>
<path class="st5" d="M567.21,356.77c0.52,7.63,1.14,16.8,1.78,26.15l30.29,6.2L567.21,356.77z"/>
<polygon class="st6" points="306.99,502.18 321.27,516.59 306.99,534.59 "/>
<path class="st7" d="M306.99,329.32V153.39c0-39.53-15.98-75.33-41.83-101.3c-0.5-0.51-1.01-1-1.52-1.5
	c-0.35-0.34-0.7-0.69-1.06-1.03c-0.41-0.39-0.82-0.76-1.23-1.15c-9.66-9.02-20.56-16.72-32.42-22.81c-0.09-0.05-0.18-0.09-0.27-0.14
	c-0.87-0.45-1.75-0.88-2.63-1.31c-0.21-0.1-0.43-0.21-0.64-0.31c-0.76-0.36-1.52-0.72-2.29-1.07c-0.35-0.16-0.7-0.32-1.05-0.48
	c-0.63-0.28-1.27-0.56-1.9-0.83c-0.5-0.21-0.99-0.43-1.49-0.63c-0.5-0.21-0.99-0.41-1.49-0.61c-0.64-0.26-1.29-0.52-1.94-0.77
	c-0.36-0.14-0.72-0.27-1.08-0.41c-0.79-0.3-1.58-0.59-2.38-0.87c-0.22-0.08-0.45-0.16-0.67-0.24c-0.93-0.33-1.86-0.64-2.79-0.95
	c-0.09-0.03-0.19-0.06-0.28-0.09c-4.77-1.56-9.61-2.85-14.49-3.89l-1.36-0.28c-3.47-0.71-6.94-1.28-10.4-1.73
	c-4.25-0.55-8.52-0.9-12.8-1.06c-0.55-0.02-1.1-0.05-1.66-0.06c-0.5-0.01-1-0.02-1.5-0.02c-0.71-0.01-1.41-0.03-2.12-0.03
	c-0.5,0-1.01,0.01-1.51,0.01c-0.68,0.01-1.37,0.01-2.05,0.03c-0.58,0.01-1.16,0.03-1.73,0.05c-0.59,0.02-1.17,0.04-1.76,0.07
	c-0.67,0.03-1.35,0.07-2.02,0.11c-0.47,0.03-0.94,0.06-1.41,0.09c-0.78,0.05-1.55,0.12-2.33,0.18c-0.35,0.03-0.7,0.06-1.04,0.09
	c-0.88,0.08-1.76,0.17-2.64,0.27c-0.23,0.03-0.46,0.05-0.69,0.08c-0.98,0.12-1.96,0.24-2.93,0.37c-0.12,0.02-0.24,0.03-0.37,0.05
	c-1.07,0.15-2.13,0.31-3.2,0.49c-0.02,0-0.05,0.01-0.07,0.01c-4.45,0.73-8.87,1.68-13.24,2.83c-0.17,0.04-0.33,0.09-0.5,0.13
	c-0.8,0.21-1.59,0.44-2.39,0.66c-0.48,0.14-0.96,0.28-1.44,0.42c-0.48,0.14-0.95,0.29-1.43,0.43c-0.79,0.25-1.58,0.49-2.37,0.75
	c-0.16,0.05-0.32,0.11-0.48,0.16c-14.14,4.71-27.43,11.59-39.39,20.33c-0.06,0.04-0.11,0.08-0.17,0.12
	c-0.78,0.57-1.54,1.15-2.31,1.73c-0.23,0.17-0.46,0.35-0.68,0.52c-0.59,0.45-1.17,0.91-1.74,1.37c-0.4,0.32-0.8,0.64-1.2,0.97
	c-0.4,0.32-0.79,0.65-1.19,0.98c-0.55,0.46-1.09,0.92-1.63,1.38c-0.36,0.31-0.71,0.62-1.06,0.93c-0.51,0.44-1.01,0.89-1.51,1.34
	c-0.44,0.4-0.87,0.8-1.3,1.2c-0.42,0.39-0.84,0.78-1.26,1.17c-0.5,0.47-1,0.96-1.49,1.44c-0.36,0.35-0.71,0.69-1.07,1.04
	c-0.51,0.5-1,1.01-1.5,1.52c-0.34,0.35-0.69,0.7-1.03,1.06c-0.39,0.41-0.77,0.82-1.15,1.23C49.41,65.1,41.71,76,35.62,87.86
	c-0.02,0.03-0.03,0.06-0.05,0.1c-0.09,0.18-0.18,0.36-0.27,0.54c-0.38,0.75-0.76,1.51-1.13,2.27c-0.02,0.04-0.04,0.08-0.06,0.12
	c-0.28,0.58-0.56,1.17-0.83,1.75c-0.17,0.35-0.33,0.71-0.5,1.06c-0.03,0.06-0.05,0.11-0.08,0.17c-0.44,0.97-0.88,1.95-1.3,2.93
	c-0.02,0.04-0.03,0.08-0.05,0.12c-3.73,8.75-6.65,18.01-8.63,27.7c-0.71,3.47-1.28,6.93-1.73,10.38c-0.55,4.25-0.9,8.52-1.06,12.8
	c-0.02,0.56-0.05,1.11-0.06,1.67c-0.01,0.5-0.02,0.99-0.02,1.49c-0.01,0.71-0.03,1.42-0.03,2.13c-0.03,12.44,1.55,24.88,4.74,36.99
	c0.04,0.17,0.09,0.33,0.13,0.5c0.21,0.8,0.44,1.59,0.66,2.39c0.14,0.48,0.28,0.96,0.42,1.44c0.14,0.48,0.29,0.96,0.44,1.43
	c0.24,0.79,0.49,1.58,0.75,2.36c0.05,0.16,0.11,0.33,0.16,0.49c5.89,17.65,15.15,33.97,27.17,48.05c2.27,2.65,4.64,5.23,7.14,7.75
	l0.97,0.98c19.15,18.98,43.84,32.8,72.22,38.6L306.99,329.32z M104.39,153.39c0-32.59,26.42-59.02,59.02-59.02
	c32.59,0,59.02,26.42,59.02,59.02c0,32.59-26.42,59.02-59.02,59.02C130.81,212.4,104.39,185.98,104.39,153.39z"/>
<path class="st8" d="M686.16,597.15c53.73-20.16,111.92-6.02,150.53,31.46l-132.05-133.2L597.57,630.38L686.16,597.15z"/>
<path class="st9" d="M686.16,597.15l-88.6,33.24l-10.84,13.66c2.18,32.06,6.61,97.28,6.61,97.28c2.43,35.78,17.77,67.6,41.16,91.23
	l0.12,0.12c0.85,0.85,1.7,1.7,2.57,2.52c0.42,0.41,0.85,0.8,1.28,1.2c0.41,0.38,0.81,0.77,1.22,1.14c0.75,0.69,1.51,1.36,2.27,2.03
	c0.08,0.07,0.16,0.15,0.25,0.22c11.2,9.77,23.9,17.8,37.67,23.74c0.15,0.07,0.31,0.13,0.46,0.2c0.84,0.36,1.68,0.71,2.52,1.05
	c0.38,0.15,0.76,0.3,1.15,0.45c0.62,0.24,1.24,0.48,1.86,0.72c0.62,0.24,1.25,0.46,1.88,0.69c0.38,0.14,0.77,0.28,1.15,0.41
	c0.86,0.3,1.73,0.6,2.6,0.89c0.15,0.05,0.31,0.1,0.46,0.15c14.26,4.65,29.11,7.01,43.97,7.08c0.11,0,0.23,0,0.34,0
	c1.01,0,2.03,0,3.04-0.02c0.56-0.01,1.12-0.03,1.68-0.05c0.58-0.02,1.17-0.03,1.75-0.05c1.2-0.05,2.39-0.12,3.59-0.2
	c2.44-0.17,4.85-0.39,7.25-0.68c0.22-0.03,0.43-0.06,0.65-0.08c0.96-0.12,1.91-0.24,2.86-0.38c0.36-0.05,0.72-0.11,1.08-0.16
	c0.8-0.12,1.59-0.24,2.38-0.38c0.47-0.08,0.93-0.16,1.4-0.25c0.68-0.12,1.36-0.24,2.03-0.37c0.55-0.11,1.1-0.22,1.64-0.33
	c0.58-0.12,1.17-0.24,1.75-0.37c0.61-0.13,1.23-0.27,1.84-0.42c0.51-0.12,1.03-0.24,1.54-0.36c0.66-0.16,1.31-0.33,1.97-0.5
	c0.46-0.12,0.93-0.24,1.39-0.37c0.68-0.18,1.37-0.38,2.05-0.57c0.44-0.12,0.87-0.25,1.3-0.38c0.69-0.21,1.39-0.42,2.08-0.63
	c0.42-0.13,0.84-0.27,1.26-0.4c0.69-0.22,1.38-0.45,2.07-0.68c0.43-0.14,0.85-0.29,1.28-0.44c0.13-0.05,0.26-0.09,0.39-0.14
	l2.5-0.94c8.11-3.04,15.79-6.74,22.99-11.01c0.03-0.02,0.06-0.03,0.09-0.05c0.73-0.43,1.45-0.88,2.17-1.33
	c0.22-0.13,0.44-0.27,0.65-0.4c0.38-0.24,0.76-0.48,1.14-0.72c0.6-0.38,1.19-0.77,1.78-1.16c0.4-0.27,0.8-0.53,1.19-0.8
	c0.56-0.38,1.12-0.76,1.67-1.15c0.43-0.3,0.86-0.61,1.29-0.92c0.51-0.36,1.02-0.73,1.52-1.1c0.48-0.35,0.96-0.71,1.44-1.07
	c0.45-0.34,0.89-0.67,1.33-1.01c0.54-0.42,1.08-0.85,1.62-1.28c0.37-0.29,0.74-0.59,1.11-0.88c0.62-0.51,1.24-1.02,1.86-1.54
	c0.28-0.23,0.56-0.47,0.84-0.7c0.73-0.62,1.45-1.26,2.17-1.89c0.16-0.14,0.33-0.29,0.49-0.43c1.8-1.61,3.57-3.28,5.3-5
	c0.85-0.85,1.7-1.7,2.52-2.57c0.41-0.43,0.81-0.86,1.21-1.29c0.38-0.4,0.76-0.8,1.13-1.21c0.69-0.75,1.36-1.51,2.04-2.28
	c0.07-0.08,0.15-0.16,0.22-0.24c4.32-4.95,8.29-10.2,11.9-15.7c0.21-0.32,0.42-0.63,0.63-0.95c0.2-0.31,0.4-0.63,0.6-0.95
	c8.38-13.27,14.56-27.84,18.26-43.12c0.07-0.3,0.14-0.6,0.21-0.9c0.16-0.69,0.32-1.37,0.47-2.06c0.15-0.69,0.29-1.37,0.43-2.06
	c0.06-0.31,0.13-0.61,0.19-0.92c1.75-8.92,2.64-17.98,2.69-27.04c0-0.11,0-0.23,0-0.34c0-1.01,0-2.03-0.02-3.04
	c-0.01-0.56-0.03-1.12-0.05-1.68c-0.02-0.58-0.03-1.17-0.06-1.75c-0.05-1.2-0.12-2.39-0.2-3.59l-0.01-0.17
	c-0.39-5.66-1.11-11.3-2.17-16.9c0-0.02-0.01-0.04-0.01-0.05c-0.19-1.01-0.4-2.02-0.61-3.03c-0.17-0.81-0.36-1.63-0.55-2.44
	c-0.05-0.22-0.1-0.44-0.15-0.66c-1.39-5.85-3.16-11.67-5.32-17.45c-3.04-8.11-6.74-15.79-11.01-22.98c-0.02-0.03-0.04-0.07-0.06-0.1
	c-0.53-0.88-1.06-1.76-1.61-2.63c-0.28-0.45-0.57-0.9-0.86-1.35c-0.29-0.45-0.57-0.89-0.86-1.34c-0.57-0.86-1.14-1.72-1.72-2.56
	c-0.02-0.03-0.04-0.06-0.06-0.09c-4.76-6.89-10.19-13.45-16.29-19.61l-1.87-1.89C798.08,591.13,739.89,576.99,686.16,597.15z
	 M795.61,731.59c0,32.59-26.42,59.02-59.02,59.02s-59.02-26.42-59.02-59.02s26.42-59.02,59.02-59.02S795.61,699,795.61,731.59z"/>
<path class="st10" d="M306.99,329.32l140.11,28.66l53.93-67.98L265.38,52.3c-0.07-0.07-0.14-0.14-0.21-0.21
	c25.85,25.97,41.83,61.77,41.83,101.3V329.32z"/>
<path class="st11" d="M134.63,294.06c-28.38-5.81-53.08-19.62-72.22-38.6l244.59,246.73V329.32L134.63,294.06z"/>
<path class="st1" d="M586.73,644.05l-61.83,77.94L634.5,832.55c-23.39-23.63-38.73-55.45-41.16-91.23
	C593.34,741.32,588.91,676.11,586.73,644.05z"/>
<polygon class="st12" points="447.1,357.99 306.99,329.32 306.99,502.18 321.27,516.59 "/>
<path class="st13" d="M561.57,273.88c0,0,3.99,58.7,5.63,82.88l32.07,32.35l76.78,15.71c54.01,11.05,107.13-9.8,139.84-49.63
	l1.43-1.8c6.11-7.71,11.3-15.84,15.6-24.28c0.09-0.17,0.17-0.34,0.26-0.51c0.39-0.77,0.77-1.55,1.14-2.33
	c0.23-0.48,0.45-0.95,0.68-1.43c0.22-0.48,0.44-0.96,0.66-1.44c0.36-0.79,0.71-1.58,1.05-2.38c0.08-0.18,0.15-0.35,0.23-0.53
	c3.71-8.71,6.6-17.92,8.57-27.56c1.22-5.98,2.05-11.94,2.51-17.87c0.51-6.8,0.54-13.62,0.09-20.41l-0.01-0.16
	c-0.01-0.21-0.03-0.41-0.05-0.62c-0.07-0.98-0.15-1.95-0.24-2.92c-0.06-0.64-0.13-1.29-0.2-1.93c-0.05-0.5-0.1-1-0.16-1.5
	c-0.1-0.88-0.22-1.76-0.34-2.64c-0.03-0.24-0.06-0.49-0.1-0.73c-0.15-1.05-0.31-2.09-0.48-3.13c-0.01-0.06-0.02-0.12-0.03-0.18
	c-1.28-7.79-3.2-15.48-5.75-22.99c-0.1-0.3-0.2-0.6-0.31-0.89c-0.23-0.65-0.46-1.3-0.69-1.94c-0.24-0.64-0.47-1.29-0.72-1.93
	c-0.11-0.3-0.23-0.59-0.34-0.88c-5.73-14.74-13.86-28.43-24-40.5c-0.18-0.22-0.36-0.44-0.55-0.65c-0.41-0.48-0.82-0.95-1.23-1.42
	c-0.41-0.47-0.82-0.94-1.24-1.41c-0.19-0.21-0.39-0.42-0.58-0.63c-2.17-2.39-4.42-4.71-6.75-6.95c-0.05-0.04-0.09-0.09-0.14-0.13
	c-0.76-0.73-1.53-1.45-2.31-2.16c-0.18-0.17-0.37-0.33-0.55-0.5c-0.65-0.59-1.31-1.18-1.97-1.76c-0.38-0.33-0.77-0.66-1.16-0.99
	c-0.49-0.42-0.97-0.84-1.46-1.25c-0.75-0.63-1.52-1.25-2.29-1.86c-0.15-0.12-0.29-0.24-0.44-0.36c-1.9-1.51-3.83-2.96-5.78-4.35
	c-0.31-0.22-0.63-0.44-0.95-0.66c-0.64-0.45-1.29-0.9-1.93-1.34c-0.48-0.32-0.96-0.64-1.45-0.96c-0.49-0.32-0.97-0.65-1.46-0.96
	c-0.59-0.38-1.18-0.75-1.77-1.12c-0.39-0.24-0.77-0.49-1.16-0.72c-0.67-0.41-1.34-0.81-2.02-1.2c-0.32-0.19-0.63-0.38-0.95-0.56
	c-0.73-0.42-1.46-0.83-2.2-1.24c-0.27-0.15-0.54-0.3-0.81-0.45c-0.77-0.42-1.55-0.84-2.33-1.24c-0.24-0.13-0.49-0.26-0.73-0.38
	c-0.8-0.41-1.61-0.82-2.41-1.21c-0.23-0.11-0.46-0.23-0.7-0.34c-0.81-0.39-1.63-0.78-2.45-1.16c-0.24-0.11-0.48-0.22-0.72-0.33
	c-0.55-0.25-1.11-0.5-1.67-0.74c-0.29-0.13-0.58-0.26-0.87-0.39c-0.18-0.08-0.35-0.15-0.53-0.23c-8.71-3.71-17.92-6.6-27.56-8.57
	l-2.25-0.46c-0.45-0.08-0.89-0.17-1.34-0.25c-0.26-0.05-0.52-0.09-0.79-0.14c-0.89-0.15-1.78-0.3-2.67-0.43
	c-0.26-0.04-0.52-0.08-0.77-0.11c-0.89-0.13-1.78-0.25-2.67-0.37c-0.27-0.03-0.54-0.07-0.82-0.1c-0.87-0.11-1.75-0.21-2.63-0.3
	c-0.31-0.03-0.61-0.06-0.92-0.09c-0.84-0.08-1.68-0.16-2.52-0.22c-0.37-0.03-0.74-0.05-1.1-0.08c-0.78-0.06-1.56-0.11-2.34-0.15
	c-0.46-0.02-0.92-0.04-1.38-0.06c-0.69-0.03-1.39-0.06-2.08-0.08c-0.59-0.02-1.18-0.03-1.77-0.04c-0.57-0.01-1.14-0.02-1.71-0.03
	c-0.79,0-1.58,0-2.37,0.01c-0.38,0-0.76,0-1.14,0.01c-2.4,0.04-4.81,0.15-7.22,0.31c-0.19,0.01-0.38,0.03-0.57,0.04
	c-0.98,0.07-1.96,0.15-2.93,0.24c-0.64,0.06-1.28,0.13-1.92,0.2c-0.5,0.05-1.01,0.1-1.51,0.16c-0.88,0.1-1.75,0.22-2.62,0.33
	c-0.25,0.03-0.5,0.06-0.74,0.1c-1.04,0.15-2.09,0.3-3.13,0.47c-0.06,0.01-0.12,0.02-0.18,0.03c-12.42,2.04-24.59,5.71-36.16,10.96
	c-0.09,0.04-0.17,0.08-0.26,0.12c-0.91,0.41-1.81,0.84-2.71,1.27c-0.28,0.14-0.56,0.27-0.84,0.41c-0.7,0.34-1.4,0.69-2.09,1.05
	c-0.49,0.25-0.97,0.5-1.45,0.75c-0.48,0.25-0.97,0.51-1.45,0.77c-0.69,0.37-1.37,0.75-2.05,1.13c-0.27,0.15-0.54,0.3-0.81,0.46
	c-0.87,0.5-1.73,1-2.59,1.52c-0.08,0.05-0.16,0.09-0.24,0.14c-10.89,6.55-20.81,14.5-29.53,23.58c-0.04,0.04-0.08,0.09-0.13,0.13
	c-0.73,0.76-1.45,1.53-2.17,2.31c-0.17,0.19-0.34,0.37-0.51,0.56c-0.59,0.65-1.18,1.3-1.76,1.97c-0.33,0.38-0.66,0.77-0.99,1.16
	c-0.42,0.49-0.84,0.97-1.25,1.46c-0.63,0.75-1.25,1.52-1.86,2.29c-0.13,0.16-0.26,0.31-0.38,0.47l-0.1,0.13
	C570.83,202.1,559.06,236.82,561.57,273.88z M704.83,205.13c32.59,0,59.02,26.42,59.02,59.02c0,32.59-26.42,59.02-59.02,59.02
	c-32.59,0-59.02-26.42-59.02-59.02C645.82,231.56,672.24,205.13,704.83,205.13z"/>
<path class="st14" d="M112.98,812.17l194.02-72.78v-204.8L52.28,855.66C67.79,836.67,88.37,821.4,112.98,812.17z"/>
<path class="st15" d="M215.88,1080.28c2.37-0.93,4.72-1.92,7.05-2.97c0.11-0.05,0.22-0.1,0.33-0.15c0.88-0.4,1.75-0.81,2.62-1.23
	c0.87-0.42,1.74-0.85,2.6-1.29c0.11-0.05,0.21-0.11,0.32-0.16c14.38-7.37,27.36-17.1,38.42-28.67c0.1-0.11,0.2-0.21,0.31-0.32
	c0.63-0.67,1.26-1.34,1.88-2.02c0.28-0.31,0.56-0.62,0.84-0.93c0.45-0.5,0.9-1.01,1.34-1.51c0.46-0.53,0.92-1.07,1.38-1.61
	c0.27-0.31,0.53-0.63,0.8-0.94c0.66-0.79,1.31-1.59,1.96-2.4c0.1-0.13,0.2-0.25,0.3-0.37l0.5-0.63
	c19.09-24.38,30.47-55.09,30.47-88.45V739.39l-194.02,72.78c-24.61,9.23-45.19,24.5-60.7,43.49l-1.36,1.71
	c-3.03,3.81-5.82,7.74-8.4,11.75c-9.88,15.43-16.76,32.67-20.2,50.73c-0.03,0.15-0.06,0.29-0.08,0.44
	c-0.16,0.84-0.31,1.69-0.45,2.54c-0.08,0.5-0.16,0.99-0.24,1.49c-0.08,0.5-0.15,1-0.23,1.5c-0.12,0.85-0.24,1.71-0.35,2.56
	c-0.02,0.14-0.04,0.29-0.06,0.43c-0.69,5.59-1.05,11.2-1.09,16.8v0.82c0,0.15,0,0.31,0,0.46c0,1.04,0.02,2.08,0.04,3.11
	c0.01,0.41,0.02,0.82,0.04,1.22c0.02,0.71,0.05,1.42,0.08,2.13c0.03,0.67,0.07,1.34,0.11,2.01c0.03,0.42,0.05,0.84,0.08,1.25
	c0.06,0.91,0.14,1.82,0.22,2.73c0.01,0.15,0.03,0.3,0.04,0.45c0.73,7.92,2.12,15.78,4.15,23.48c1.22,4.61,2.68,9.2,4.39,13.75
	c2.56,6.84,5.6,13.36,9.04,19.55c0.12,0.21,0.24,0.42,0.36,0.64c0.36,0.63,0.72,1.26,1.09,1.88c0.32,0.55,0.64,1.1,0.97,1.64
	c0.15,0.25,0.31,0.5,0.46,0.75c6.51,10.63,14.36,20.35,23.33,28.91c0.11,0.1,0.22,0.21,0.33,0.31c0.66,0.63,1.33,1.25,2.01,1.87
	c0.31,0.28,0.62,0.56,0.94,0.85c0.5,0.45,1,0.89,1.5,1.33c0.54,0.47,1.08,0.93,1.63,1.39c0.31,0.26,0.62,0.53,0.93,0.79
	c0.8,0.66,1.6,1.32,2.41,1.97c0.09,0.07,0.18,0.14,0.27,0.21c3.8,3.01,7.7,5.79,11.69,8.36c15.34,9.82,32.46,16.67,50.4,20.14
	c0.29,0.05,0.57,0.11,0.86,0.17c0.62,0.12,1.25,0.22,1.88,0.33c0.71,0.12,1.43,0.24,2.15,0.36c0.24,0.04,0.48,0.07,0.72,0.11
	c6.99,1.05,14.14,1.6,21.42,1.6c0.11,0,0.23,0,0.34,0c1.04,0,2.08-0.02,3.11-0.04c0.41-0.01,0.82-0.02,1.22-0.04
	c0.71-0.02,1.42-0.05,2.13-0.08c0.67-0.03,1.34-0.07,2.01-0.11c0.42-0.03,0.84-0.05,1.26-0.08c0.91-0.06,1.82-0.13,2.73-0.22
	c0.15-0.01,0.3-0.03,0.45-0.04c7.92-0.73,15.78-2.12,23.48-4.15c4.61-1.22,9.2-2.68,13.75-4.39L215.88,1080.28z M163.41,1005.62
	c-32.59,0-59.02-26.42-59.02-59.02c0-32.59,26.42-59.02,59.02-59.02c32.59,0,59.02,26.42,59.02,59.02
	C222.42,979.2,196,1005.62,163.41,1005.62z"/>
<path class="st16" d="M676.05,404.82l-76.78-15.71l105.37,106.29l111.24-140.22C783.18,395.02,730.06,415.87,676.05,404.82z"/>
<path class="st17" d="M561.57,273.88c-2.52-37.06,9.26-71.79,30.62-98.79l-91.17,114.92l66.18,66.76
	C565.56,332.59,561.57,273.88,561.57,273.88z"/>
<path class="st18" d="M306.99,739.39v207.22c0,33.37-11.38,64.07-30.47,88.45l248.37-313.07l-46.49-46.9L306.99,739.39z"/>
<polygon class="st19" points="478.4,675.09 321.27,516.59 306.99,534.59 306.99,739.39 "/>
<path class="st20" d="M848.02,275.06c-1.16,15.45-4.84,30.81-11.08,45.43c-0.08,0.18-0.15,0.35-0.23,0.53
	c-0.34,0.79-0.69,1.59-1.05,2.38c-0.22,0.48-0.44,0.96-0.66,1.44c-0.22,0.48-0.45,0.96-0.68,1.43c-0.37,0.78-0.76,1.56-1.14,2.33
	c-0.09,0.17-0.17,0.34-0.26,0.51c-4.75,9.39-10.48,18.12-17.02,26.09L704.65,495.41l132.05,133.2c6.68,6.49,12.77,13.67,18.16,21.5
	c0.02,0.03,0.04,0.06,0.06,0.09c0.58,0.85,1.16,1.7,1.72,2.56c0.29,0.44,0.58,0.89,0.86,1.34c0.29,0.45,0.58,0.9,0.86,1.35
	c0.55,0.87,1.08,1.75,1.61,2.63c0.02,0.03,0.04,0.07,0.06,0.1c7.59,12.73,13.03,26.38,16.33,40.43c0.05,0.22,0.1,0.44,0.15,0.66
	c0.19,0.81,0.37,1.63,0.55,2.44c0.22,1.01,0.42,2.02,0.61,3.03c0,0.02,0.01,0.04,0.01,0.05c0.91,4.74,1.57,9.49,1.99,14.23
	l-31.37-461.7C848.56,263.17,848.48,269.1,848.02,275.06z"/>
<path class="st21" d="M20.97,928.36c0.11-0.85,0.23-1.71,0.35-2.56c0.07-0.5,0.15-1,0.23-1.5c0.08-0.5,0.16-0.99,0.24-1.49
	c0.14-0.85,0.29-1.69,0.45-2.54c0.03-0.15,0.05-0.29,0.08-0.44c3.33-17.66,10.03-34.9,20.2-50.73c2.98-4.66,6.24-9.15,9.76-13.46
	l254.72-321.07v-32.4L62.41,255.46c-2.82-2.8-5.53-5.71-8.11-8.73c-12.41-14.48-21.46-30.83-27.17-48.05
	c-0.05-0.16-0.11-0.33-0.16-0.49c-0.26-0.78-0.51-1.57-0.75-2.36c-0.15-0.48-0.29-0.96-0.44-1.43c-0.14-0.48-0.28-0.96-0.42-1.44
	c-0.23-0.79-0.45-1.59-0.66-2.39c-0.04-0.17-0.09-0.33-0.13-0.5c-2.93-11.05-4.56-22.55-4.75-34.28v787.79
	c0.11-4.97,0.47-9.9,1.09-14.79C20.93,928.65,20.95,928.51,20.97,928.36z"/>
<path class="st22" d="M208.32,16.97c0.93,0.31,1.86,0.63,2.79,0.95c0.22,0.08,0.45,0.16,0.67,0.24c0.8,0.28,1.59,0.58,2.38,0.87
	c0.36,0.14,0.72,0.27,1.08,0.41c0.65,0.25,1.29,0.51,1.94,0.77c0.5,0.2,1,0.4,1.49,0.61c0.5,0.21,0.99,0.42,1.49,0.63
	c0.64,0.27,1.27,0.55,1.9,0.83c0.35,0.16,0.7,0.32,1.05,0.48c0.76,0.35,1.53,0.7,2.29,1.07c0.22,0.1,0.43,0.21,0.64,0.31
	c0.88,0.43,1.76,0.86,2.63,1.31c0.09,0.05,0.18,0.09,0.27,0.14c11.57,5.93,22.49,13.54,32.42,22.81c0.41,0.38,0.82,0.76,1.23,1.15
	c0.36,0.34,0.71,0.69,1.06,1.03c0.51,0.5,1.02,0.99,1.52,1.5c0.07,0.07,0.14,0.14,0.21,0.21l235.65,237.71l91.17-114.92
	c0.03-0.04,0.07-0.08,0.1-0.13l0.05-0.06c0.11-0.14,0.22-0.27,0.33-0.41c0.61-0.77,1.23-1.53,1.86-2.29
	c0.41-0.49,0.83-0.98,1.25-1.46c0.33-0.39,0.66-0.78,0.99-1.16c0.58-0.66,1.17-1.32,1.76-1.97c0.17-0.19,0.34-0.38,0.51-0.56
	c0.71-0.78,1.44-1.55,2.17-2.31c0.04-0.04,0.08-0.09,0.13-0.13c8.93-9.31,18.88-17.18,29.53-23.58c0.08-0.05,0.16-0.09,0.24-0.14
	c0.86-0.51,1.72-1.02,2.59-1.52c0.27-0.15,0.54-0.3,0.81-0.46c0.68-0.38,1.36-0.76,2.05-1.13c0.48-0.26,0.97-0.51,1.45-0.77
	c0.48-0.25,0.96-0.51,1.45-0.75c0.69-0.36,1.39-0.7,2.09-1.05c0.28-0.14,0.56-0.28,0.84-0.41c0.9-0.43,1.8-0.86,2.71-1.27
	c0.09-0.04,0.17-0.08,0.26-0.12c11.31-5.15,23.43-8.88,36.16-10.96c0.06-0.01,0.12-0.02,0.18-0.03c1.04-0.17,2.08-0.33,3.13-0.47
	c0.25-0.03,0.5-0.06,0.74-0.1c0.87-0.12,1.75-0.23,2.62-0.33c0.5-0.06,1-0.11,1.51-0.16c0.64-0.07,1.28-0.14,1.92-0.2
	c0.98-0.09,1.95-0.17,2.93-0.24c0.18-0.01,0.35-0.03,0.53-0.04c0.01,0,0.02,0,0.03,0c2.4-0.16,4.81-0.27,7.22-0.31
	c0.38-0.01,0.76,0,1.14-0.01c0.79-0.01,1.58-0.02,2.37-0.01c0.57,0,1.14,0.02,1.71,0.03c0.59,0.01,1.18,0.02,1.77,0.04
	c0.7,0.02,1.39,0.05,2.08,0.08c0.46,0.02,0.92,0.04,1.38,0.06c0.78,0.04,1.56,0.1,2.34,0.15c0.37,0.03,0.74,0.05,1.1,0.08
	c0.84,0.07,1.68,0.14,2.52,0.22c0.31,0.03,0.61,0.06,0.92,0.09c0.88,0.09,1.75,0.19,2.63,0.3c0.27,0.03,0.54,0.06,0.82,0.1
	c0.89,0.11,1.78,0.24,2.67,0.37c0.26,0.04,0.52,0.07,0.77,0.11c0.89,0.14,1.78,0.28,2.67,0.43c0.26,0.05,0.52,0.09,0.79,0.14
	c0.24,0.04,0.49,0.08,0.73,0.13L194.55,13.2c4.58,1.01,9.08,2.24,13.48,3.68C208.13,16.91,208.22,16.94,208.32,16.97z"/>
<path class="st23" d="M782.87,867.54c-0.69,0.23-1.37,0.46-2.07,0.68c-0.42,0.14-0.84,0.27-1.26,0.4c-0.69,0.22-1.38,0.43-2.08,0.63
	c-0.43,0.13-0.87,0.25-1.3,0.38c-0.68,0.19-1.36,0.39-2.05,0.57c-0.46,0.12-0.93,0.25-1.39,0.37c-0.65,0.17-1.31,0.34-1.97,0.5
	c-0.51,0.12-1.03,0.24-1.54,0.36c-0.61,0.14-1.22,0.28-1.84,0.42c-0.58,0.13-1.17,0.25-1.75,0.37c-0.55,0.11-1.09,0.23-1.64,0.33
	c-0.68,0.13-1.35,0.25-2.03,0.37c-0.47,0.08-0.93,0.17-1.4,0.25c-0.79,0.13-1.59,0.26-2.38,0.38c-0.36,0.05-0.72,0.11-1.08,0.16
	c-0.95,0.14-1.9,0.26-2.86,0.38c-0.22,0.03-0.43,0.06-0.65,0.08c-3.61,0.43-7.22,0.72-10.85,0.87c-0.58,0.03-1.17,0.04-1.75,0.05
	c-0.56,0.02-1.12,0.04-1.68,0.05c-1.02,0.02-2.03,0.02-3.04,0.02c-0.11,0-0.23,0-0.34,0c-15.28-0.06-30.07-2.53-43.97-7.08
	c-0.15-0.05-0.31-0.1-0.46-0.15c-0.87-0.29-1.74-0.58-2.6-0.89c-0.39-0.14-0.77-0.28-1.15-0.41c-0.63-0.23-1.25-0.46-1.88-0.69
	c-0.62-0.23-1.24-0.48-1.86-0.72c-0.38-0.15-0.77-0.3-1.15-0.45c-0.84-0.34-1.68-0.69-2.52-1.05c-0.15-0.07-0.31-0.13-0.46-0.2
	c-13.44-5.77-26.17-13.68-37.67-23.74c-0.08-0.07-0.16-0.15-0.25-0.22c-0.76-0.67-1.52-1.34-2.27-2.03
	c-0.41-0.38-0.81-0.76-1.22-1.14c-0.43-0.4-0.86-0.8-1.28-1.2c-0.91-0.87-1.8-1.75-2.69-2.65L524.89,721.99l-248.37,313.07
	c-0.17,0.21-0.33,0.42-0.5,0.63l-0.13,0.16c-0.06,0.07-0.12,0.14-0.18,0.22c-0.64,0.81-1.3,1.61-1.96,2.4
	c-0.26,0.32-0.53,0.63-0.8,0.94c-0.46,0.54-0.92,1.08-1.38,1.61c-0.44,0.51-0.89,1.01-1.34,1.51c-0.28,0.31-0.55,0.62-0.84,0.93
	c-0.62,0.68-1.25,1.35-1.88,2.02c-0.1,0.11-0.2,0.22-0.31,0.32c-11.36,11.92-24.38,21.5-38.42,28.67c-0.11,0.05-0.21,0.11-0.32,0.16
	c-0.86,0.44-1.73,0.87-2.6,1.29c-0.87,0.42-1.74,0.83-2.62,1.23c-0.11,0.05-0.22,0.1-0.33,0.15c-2.06,0.94-4.15,1.83-6.27,2.68
	l567.69-212.96c-0.07,0.02-0.14,0.05-0.21,0.07C783.72,867.25,783.3,867.4,782.87,867.54z"/>
</svg>
