<svg xmlns="http://www.w3.org/2000/svg" viewBox="0 0 48 48">
  <path d="M24 4c-4.5 0-8.4.4-11.5 1.6C9.5 7 8 9.5 8 13v4h16v2H9c-4 0-7 3-7 8s1.5 9 5 11c1.5.8 3.5 1 6 1h4v-5c0-4.5 3.5-8 8-8h10c3 0 5-2 5-5V13c0-3-2-5.5-5-6.5C32.4 5.2 28.5 4 24 4zm-6.5 5a2.5 2.5 0 110 5 2.5 2.5 0 010-5z" fill="#3776AB"/>
  <path d="M24 44c4.5 0 8.4-.4 11.5-1.6C38.5 41 40 38.5 40 35v-4H24v-2h15c4 0 7-3 7-8s-1.5-9-5-11c-1.5-.8-3.5-1-6-1h-4v5c0 4.5-3.5 8-8 8H13c-3 0-5 2-5 5v8c0 3 2 5.5 5 6.5C15.6 42.8 19.5 44 24 44zm6.5-5a2.5 2.5 0 110-5 2.5 2.5 0 010 5z" fill="#FFD43B"/>
</svg>