<?xml version="1.0" encoding="UTF-8"?>
<svg xmlns="http://www.w3.org/2000/svg" xmlns:xlink="http://www.w3.org/1999/xlink" width="3840px" height="3499px" viewBox="0 0 3839 3499" version="1.1">
<g id="surface1">
<path style=" stroke:none;fill-rule:nonzero;fill:rgb(40.392157%,60.392159%,90.588236%);fill-opacity:1;" d="M 48.078125 345.234375 C 240.386719 231.292969 430.363281 113.042969 623.390625 0.71875 C 625.183594 955.496094 623.390625 1910.273438 623.390625 2865.230469 C 529.027344 2922.652344 433.949219 2978.816406 339.769531 3036.59375 C 226.035156 3104.0625 113.734375 3174.398438 -1.078125 3240.433594 L -1.078125 382.378906 C 12.964844 367.164062 29.609375 354.585938 48.078125 345.234375 Z M 48.078125 345.234375 "/>
<path style=" stroke:none;fill-rule:nonzero;fill:rgb(9.411765%,41.960785%,100%);fill-opacity:1;" d="M 623.390625 0.71875 C 1530.996094 -0.121094 2438.660156 -0.121094 3346.386719 0.71875 C 3454.023438 -4.664062 3557.175781 90.4375 3556.636719 198.097656 C 3556.636719 346.492188 3556.636719 495.0625 3556.636719 643.457031 C 3556.636719 1383.808594 3556.636719 2124.222656 3556.636719 2864.695312 C 2579.304688 2864.695312 1601.914062 2864.695312 624.464844 2864.695312 C 623.390625 1910.273438 625.183594 955.496094 623.390625 0.71875 Z M 1517.839844 2229.671875 C 1651.308594 2230.925781 1784.957031 2229.671875 1918.601562 2229.671875 C 1918.601562 2038.273438 1918.601562 1847.472656 1918.601562 1657.269531 C 1974.753906 1657.269531 2030.902344 1657.269531 2087.050781 1656.371094 C 2146.96875 1770.671875 2201.863281 1887.84375 2259.988281 2003.222656 C 2303.757812 2103.347656 2367.621094 2207.957031 2477.949219 2244.023438 C 2575.375 2274.679688 2680.507812 2269.78125 2774.664062 2230.207031 C 2774.664062 2150.539062 2774.664062 2070.871094 2774.664062 1991.378906 C 2741.835938 1987.253906 2706.316406 1987.789062 2677.613281 1968.949219 C 2654.203125 1952.714844 2635.609375 1930.460938 2623.796875 1904.53125 C 2565.3125 1793.640625 2506.59375 1682.929688 2447.632812 1572.398438 C 2537.328125 1524.308594 2623.617188 1456.839844 2666.492188 1361.199219 C 2709.722656 1271.484375 2697.167969 1167.949219 2698.242188 1070.875 C 2699.296875 962.84375 2654.746094 859.378906 2575.539062 785.929688 C 2462.878906 683.832031 2306.449219 645.789062 2158.449219 640.765625 C 1945.332031 640.765625 1732.035156 640.765625 1518.917969 640.765625 C 1517.300781 1170.28125 1518.558594 1700.15625 1517.839844 2229.671875 Z M 1517.839844 2229.671875 "/>
<path style=" stroke:none;fill-rule:nonzero;fill:rgb(9.411765%,41.960785%,100%);fill-opacity:1;" d="M 1918.601562 916.199219 C 1998.433594 919.25 2080.054688 909.203125 2158.269531 922.660156 C 2223.929688 935.757812 2283.847656 986 2293.890625 1054.1875 C 2298.40625 1110.710938 2299.484375 1167.457031 2297.121094 1224.113281 C 2295.453125 1294.707031 2249.992188 1356.789062 2183.207031 1379.683594 C 2097.996094 1407.496094 2006.863281 1391.703125 1918.78125 1396.011719 C 1918.542969 1236.195312 1918.484375 1076.257812 1918.601562 916.199219 Z M 1918.601562 916.199219 "/>
<path style=" stroke:none;fill-rule:nonzero;fill:rgb(100%,100%,100%);fill-opacity:1;" d="M 1517.839844 2229.671875 C 1517.839844 1699.976562 1517.839844 1171 1517.839844 640.765625 C 1730.957031 640.765625 1944.257812 640.765625 2157.375 640.765625 C 2305.910156 645.96875 2462.339844 684.007812 2574.460938 785.929688 C 2653.667969 859.378906 2698.222656 962.84375 2697.167969 1070.875 C 2696.269531 1167.949219 2708.648438 1270.765625 2665.414062 1361.199219 C 2622.539062 1456.839844 2536.96875 1524.308594 2446.554688 1572.398438 C 2505.394531 1682.929688 2564.117188 1793.640625 2622.71875 1904.53125 C 2634.535156 1930.460938 2653.125 1952.714844 2676.535156 1968.949219 C 2705.238281 1986.894531 2740.9375 1986.894531 2773.585938 1991.378906 C 2773.585938 2071.050781 2773.585938 2150.71875 2773.585938 2230.207031 C 2679.433594 2269.78125 2574.296875 2274.679688 2476.871094 2244.023438 C 2367.441406 2208.136719 2302.863281 2103.167969 2258.910156 2003.222656 C 2200.789062 1887.84375 2145.894531 1769.957031 2085.976562 1656.371094 C 2029.828125 1658.167969 1973.675781 1656.371094 1917.527344 1657.269531 C 1917.527344 1848.667969 1917.527344 2039.46875 1917.527344 2229.671875 C 1784.957031 2229.851562 1650.949219 2230.925781 1517.839844 2229.671875 Z M 1918.601562 916.199219 C 1918.601562 1076.136719 1918.601562 1236.074219 1918.601562 1396.011719 C 2006.503906 1391.882812 2097.996094 1407.496094 2183.027344 1379.683594 C 2249.8125 1356.789062 2295.273438 1294.707031 2296.941406 1224.113281 C 2299.304688 1167.457031 2298.226562 1110.710938 2293.710938 1054.1875 C 2283.128906 986 2223.75 935.757812 2158.09375 922.660156 C 2079.339844 908.304688 1998.433594 919.429688 1918.601562 916.199219 Z M 1918.601562 916.199219 "/>
<path style=" stroke:none;fill-rule:nonzero;fill:rgb(4.705882%,23.921569%,56.862748%);fill-opacity:1;" d="M 3556.636719 643.816406 L 3839.539062 643.816406 C 3839.539062 1596.980469 3839.539062 2550.144531 3839.539062 3503.304688 L 532.617188 3503.304688 C 466.75 3496.488281 407.453125 3460.375 371.164062 3404.976562 C 348.414062 3369.441406 337.542969 3327.589844 340.128906 3285.472656 C 340.128906 3202.570312 340.128906 3119.492188 340.128906 3036.59375 C 434.308594 2978.996094 529.386719 2922.652344 623.746094 2865.230469 C 1601.199219 2865.230469 2578.589844 2865.230469 3555.917969 2865.230469 C 3556.875 2124.761719 3557.113281 1384.289062 3556.636719 643.816406 Z M 3556.636719 643.816406 "/>
</g>
</svg>
